<?xml version="1.0" encoding="UTF-8"?>
<svg xmlns="http://www.w3.org/2000/svg" xmlns:xlink="http://www.w3.org/1999/xlink" viewBox="0 0 24 24" width="24px" height="24px">
<g id="surface93555807">
<path style=" stroke:none;fill-rule:nonzero;fill:rgb(100%,100%,100%);fill-opacity:1;" d="M 10.398438 2.398438 C 5.539062 2.398438 1.601562 5.980469 1.601562 10.398438 C 1.601562 12.667969 2.648438 14.710938 4.316406 16.164062 C 4.078125 16.949219 3.578125 17.730469 2.660156 18.425781 C 2.660156 18.425781 2.660156 18.425781 2.65625 18.425781 C 2.503906 18.484375 2.398438 18.632812 2.398438 18.800781 C 2.398438 19.019531 2.578125 19.199219 2.800781 19.199219 C 2.828125 19.199219 2.855469 19.195312 2.882812 19.191406 C 4.433594 19.1875 5.757812 18.523438 6.8125 17.691406 C 7.3125 17.894531 7.832031 18.0625 8.375 18.179688 C 8.132812 17.492188 8 16.757812 8 16 C 8 12.03125 11.589844 8.800781 16 8.800781 C 17.105469 8.800781 18.160156 9.003906 19.117188 9.371094 C 18.5625 5.4375 14.875 2.398438 10.398438 2.398438 Z M 16 10.398438 C 12.464844 10.398438 9.601562 12.90625 9.601562 16 C 9.601562 19.09375 12.464844 21.601562 16 21.601562 C 16.816406 21.597656 17.628906 21.460938 18.386719 21.191406 C 19.367188 21.878906 20.554688 22.386719 21.914062 22.390625 C 21.941406 22.398438 21.972656 22.398438 22 22.398438 C 22.222656 22.398438 22.398438 22.222656 22.398438 22 C 22.398438 21.832031 22.296875 21.683594 22.136719 21.625 C 21.40625 21.070312 20.9375 20.457031 20.65625 19.835938 C 21.773438 18.796875 22.398438 17.425781 22.398438 16 C 22.398438 12.90625 19.535156 10.398438 16 10.398438 Z M 16 10.398438 "/>
</g>
</svg>
