<svg width="170" height="42" viewBox="0 0 170 42" fill="none" xmlns="http://www.w3.org/2000/svg">
<path d="M31.5412 30H37.6179V21.1932C37.6179 19.2557 38.9499 17.9787 40.7443 17.9787C41.3718 17.9787 42.3846 18.0778 42.9901 18.2869V13.1019C42.5057 12.9588 41.9773 12.8707 41.4489 12.8707C39.6435 12.8707 38.2344 13.9276 37.6179 16.3054H37.4418V13.0909H31.5412V30ZM52.1602 30.3082C57.6644 30.3082 60.9229 26.7855 60.9229 21.5895C60.9229 16.3935 57.6644 12.8707 52.1602 12.8707C46.6559 12.8707 43.3974 16.3935 43.3974 21.5895C43.3974 26.7855 46.6559 30.3082 52.1602 30.3082ZM52.2042 25.8168C50.5749 25.8168 49.6062 24.1985 49.6062 21.5455C49.6062 18.8924 50.5749 17.2741 52.2042 17.2741C53.7454 17.2741 54.7141 18.8924 54.7141 21.5455C54.7141 24.1985 53.7454 25.8168 52.2042 25.8168ZM69.4656 20.4886C69.4766 18.8153 70.4233 17.8026 71.9315 17.8026C73.4616 17.8026 74.3643 18.8153 74.3533 20.4886V30H80.43V19.2116C80.4411 15.5348 78.1183 12.8707 74.5295 12.8707C72.0415 12.8707 70.071 14.1697 69.3335 16.3054H69.1573V13.0909H63.3888V30H69.4656V20.4886ZM88.1415 30.2642C90.3432 30.2642 92.0055 29.5156 93.0293 27.6222H93.1614V30H98.8418V18.419C98.8418 15.2926 95.8805 12.8707 91.0478 12.8707C85.9949 12.8707 83.5069 15.5128 83.2978 18.5952H88.8901C89.0332 17.5494 89.8038 17.054 90.9597 17.054C92.0165 17.054 92.7651 17.5384 92.7651 18.419V18.4631C92.7651 19.4428 91.6863 19.7511 88.8461 19.9602C85.3564 20.2134 82.6373 21.6225 82.6373 25.3324C82.6373 28.701 84.905 30.2642 88.1415 30.2642ZM90.123 26.4332C89.0882 26.4332 88.3617 25.9268 88.3617 24.9801C88.3617 24.1104 88.9782 23.4389 90.3873 23.2188C91.356 23.0646 92.1706 22.8665 92.8091 22.6023V24.0114C92.8091 25.5526 91.4991 26.4332 90.123 26.4332ZM111.829 13.0909H108.923V9.03977H102.846V13.0909H100.688V17.4943H102.846V25.1342C102.802 28.679 104.993 30.4734 109.187 30.2422C110.563 30.1651 111.587 29.8789 112.137 29.7138L111.257 25.4425C111.025 25.4975 110.431 25.6186 110.068 25.6186C109.275 25.6186 108.923 25.2663 108.923 24.5618V17.4943H111.829V13.0909ZM114.309 30H120.385V13.0909H114.309V30ZM117.347 11.3295C118.998 11.3295 120.341 10.0856 120.341 8.5554C120.341 7.02521 118.998 5.78125 117.347 5.78125C115.696 5.78125 114.353 7.02521 114.353 8.5554C114.353 10.0856 115.696 11.3295 117.347 11.3295ZM123.482 30H129.558V20.1364C129.558 18.6612 130.329 17.7585 131.584 17.7585C132.839 17.7585 133.653 18.6612 133.653 20.1364V30H139.466V20.1364C139.466 18.6612 140.237 17.7585 141.492 17.7585C142.747 17.7585 143.561 18.6612 143.561 20.1364V30H149.638V18.5952C149.638 15.1275 147.414 12.8707 144.178 12.8707C141.668 12.8707 139.642 14.2358 139.07 16.3054H138.894C138.541 14.2358 136.648 12.8707 134.27 12.8707C131.925 12.8707 130.131 14.1918 129.426 16.3054H129.25V13.0909H123.482V30ZM160.737 30.3082C165.427 30.3082 168.443 28.0625 169.016 24.5398H163.467C163.115 25.4975 162.113 26.0369 160.869 26.0369C159.064 26.0369 158.007 24.848 158.007 23.2188V22.9545H169.016V21.5455C169.016 16.1623 165.713 12.8707 160.605 12.8707C155.365 12.8707 152.018 16.3494 152.018 21.5895C152.018 27.0607 155.321 30.3082 160.737 30.3082ZM158.007 19.608C158.04 18.1438 159.251 17.142 160.737 17.142C162.245 17.142 163.39 18.1548 163.423 19.608H158.007Z" fill="#2029F3"/>
<path d="M20 42C14.6957 42 9.60859 39.8929 5.85786 36.1421C2.10713 32.3914 -1.10609e-06 27.3043 -8.74228e-07 22C-6.42368e-07 16.6957 2.10714 11.6086 5.85786 7.85786C9.60859 4.10714 14.6957 2 20 2L20 9.2C16.6052 9.2 13.3495 10.5486 10.949 12.949C8.54857 15.3495 7.2 18.6052 7.2 22C7.2 25.3948 8.54857 28.6505 10.949 31.051C13.3495 33.4514 16.6052 34.8 20 34.8L20 42Z" fill="#0FBA68"/>
<path d="M20 31C15.0294 31 11 26.9706 11 22C11 17.0294 15.0294 13 20 13C24.9706 13 29 17.0294 29 22C29 26.9706 24.9706 31 20 31ZM20 18.1009C17.8466 18.1009 16.1009 19.8466 16.1009 22C16.1009 24.1534 17.8466 25.8991 20 25.8991C22.1534 25.8991 23.8991 24.1534 23.8991 22C23.8991 19.8466 22.1534 18.1009 20 18.1009Z" fill="#EAD621"/>
</svg>
